<?xml version="1.0" encoding="UTF-8" standalone="no"?>
<svg
   xmlns:dc="http://purl.org/dc/elements/1.1/"
   xmlns:cc="http://creativecommons.org/ns#"
   xmlns:rdf="http://www.w3.org/1999/02/22-rdf-syntax-ns#"
   xmlns:svg="http://www.w3.org/2000/svg"
   xmlns="http://www.w3.org/2000/svg"
   viewBox="0 0 1051.04 217.65334"
   height="217.65334"
   width="1051.04"
   xml:space="preserve"
   id="svg2"
   version="1.1"><metadata
     id="metadata8"><rdf:RDF><cc:Work
         rdf:about=""><dc:format>image/svg+xml</dc:format><dc:type
           rdf:resource="http://purl.org/dc/dcmitype/StillImage" /></cc:Work></rdf:RDF></metadata><defs
     id="defs6"><clipPath
       id="clipPath20"
       clipPathUnits="userSpaceOnUse"><path
         id="path18"
         d="M 0,0 H 7882.82 V 1632 H 0 Z" /></clipPath></defs><g
     transform="matrix(1.3333333,0,0,-1.3333333,0,217.65333)"
     id="g10"><g
       transform="scale(0.1)"
       id="g12"><g
         id="g14"><g
           clip-path="url(#clipPath20)"
           id="g16"><path
             id="path22"
             style="fill:#100f0d;fill-opacity:1;fill-rule:nonzero;stroke:none"
             d="m 7822.86,638.523 v 355.313 h 46.01 V 1388.59 H 6549.79 v -360.8 l -255.73,360.8 h -337.23 c -150.82,153.11 -359.19,243.8 -581.63,243.8 -220.19,0 -428.72,-88.1 -581.77,-243.8 H 2720.66 L 2585.57,991.871 2448.77,1388.59 H 1933.7 V 771.988 L 1711.38,1388.59 H 1278.63 L 1066.75,815.641 v 212.579 -30.001 l -0.34,354.331 -105.515,19.08 c -123.102,20.51 -253.571,30.91 -387.786,30.91 -46.914,0 -92.316,-2.36 -134.918,-6.98 -46.367,-5.02 -94.961,-15.64 -144.5,-31.58 -52.652,-16.97 -99.242,-39.25 -138.5,-66.21 C 109.723,1266.51 72.1836,1223.78 43.6094,1170.71 14.6719,1116.95 0,1055.6 0,988.355 V 611.93 C 0,549.602 13.1289,493.18 39.0391,444.25 64.9844,395.238 100.309,355.379 143.895,325.859 c 37.808,-25.687 83.601,-46.339 136.023,-61.379 46.977,-13.519 94.793,-22.851 142.098,-27.742 44.3,-4.59 94.199,-6.918 148.304,-6.918 66.278,0 139.297,6.11 217.039,18.16 26.418,4.09 51.075,8.551 74.403,13.348 L 855.27,243.77 h 473.52 l 79.46,238.41 h 157.92 l 80.86,-238.41 h 726.04 v 102.878 l 36.22,-102.878 h 345.06 l 27.01,79.07 V 243.77 H 4793.65 C 4946.73,88.1992 5155.64,0 5375.2,0 c 222.42,0 430.77,90.6797 581.59,243.77 h 368.74 V 609.461 L 6580.7,243.77 h 1302.12 v 394.753 h -59.96" /><path
             id="path24"
             style="fill:#4c99d2;fill-opacity:1;fill-rule:nonzero;stroke:none"
             d="m 6071.38,816.188 c 0,-384.469 -311.69,-696.208 -696.18,-696.208 -384.53,0 -696.2,311.739 -696.2,696.208 0,384.492 311.67,696.182 696.2,696.182 384.49,0 696.18,-311.69 696.18,-696.182" /><path
             id="path26"
             style="fill:#100f0d;fill-opacity:1;fill-rule:nonzero;stroke:none"
             d="m 5375.2,1297.18 c -265.2,0 -480.97,-215.77 -480.97,-480.992 0,-265.219 215.77,-480.977 480.97,-480.977 265.22,0 481.01,215.758 481.01,480.977 0,265.222 -215.79,480.992 -481.01,480.992" /><path
             id="path28"
             style="fill:#ffffff;fill-opacity:1;fill-rule:nonzero;stroke:none"
             d="m 946.746,408.371 c -46.488,-16.73 -105.734,-30.68 -177.754,-41.832 -72.043,-11.16 -138.265,-16.738 -198.672,-16.738 -50.199,0 -95.508,2.09 -135.933,6.281 -40.438,4.18 -80.867,12.066 -121.289,23.699 -40.442,11.598 -74.375,26.707 -101.786,45.321 C 183.891,443.68 161.82,468.781 145.09,500.379 128.363,531.969 120,569.148 120,611.91 v 376.426 c 0,47.414 9.762,89.234 29.273,125.484 19.52,36.25 44.141,64.59 73.891,85.04 29.742,20.43 65.527,37.41 107.356,50.89 41.828,13.46 82.015,22.31 120.597,26.49 38.555,4.19 79.227,6.28 121.992,6.28 128.262,0 250.953,-9.77 368.063,-29.28 v -164.52 c -110.621,26 -233.305,39.04 -368.063,39.04 -157.089,0 -235.625,-45.55 -235.625,-136.631 V 627.25 c 0,-46.488 22.071,-78.551 66.227,-96.199 44.137,-17.672 107.117,-26.492 188.91,-26.492 45.531,0 94.328,6.972 146.395,20.921 V 735.992 H 591.227 V 878.199 H 946.746 V 408.371" /><path
             id="path30"
             style="fill:#ffffff;fill-opacity:1;fill-rule:nonzero;stroke:none"
             d="m 1604.78,747.145 -114.32,340.175 h -5.58 L 1370.56,747.145 Z M 1953.32,363.75 h -220.28 l -80.86,238.41 h -330.42 l -79.47,-238.41 h -214.7 l 334.6,904.82 h 264.89 l 326.24,-904.82" /><path
             id="path32"
             style="fill:#ffffff;fill-opacity:1;fill-rule:nonzero;stroke:none"
             d="m 3097.94,363.75 h -196.58 v 669.21 h -4.18 L 2668.54,363.75 h -174.28 l -235.62,669.21 h -5.57 V 363.75 H 2053.7 v 904.82 h 309.51 l 223.06,-646.89 220.29,646.89 h 291.38 V 363.75" /><path
             id="path34"
             style="fill:#ffffff;fill-opacity:1;fill-rule:nonzero;stroke:none"
             d="m 3997.17,363.75 h -704.06 v 904.82 h 690.13 V 1113.82 H 3510.61 V 906.09 h 426.61 V 751.336 H 3510.61 V 518.5 h 486.56 V 363.75" /><path
             id="path36"
             style="fill:#ffffff;fill-opacity:1;fill-rule:nonzero;stroke:none"
             d="m 4849,363.75 h -747.28 v 132.449 l 471.24,617.621 h -457.29 v 154.75 h 724.97 V 1137.52 L 4369.41,519.898 H 4849 V 363.75" /><path
             id="path38"
             style="fill:#ffffff;fill-opacity:1;fill-rule:nonzero;stroke:none"
             d="M 6863.57,363.75 H 6643.3 L 6205.53,991.129 V 363.75 h -193.8 v 904.82 h 220.3 l 437.76,-617.617 v 617.617 h 193.78 V 363.75" /><path
             id="path40"
             style="fill:#ffffff;fill-opacity:1;fill-rule:nonzero;stroke:none"
             d="m 7762.82,363.75 h -704.07 v 904.82 h 690.12 V 1113.82 H 7276.25 V 906.09 h 426.61 V 751.336 H 7276.25 V 518.5 h 486.57 V 363.75" /></g></g></g></g></svg>